<svg width="320" height="320" viewBox="0 0 320 320" fill="none" xmlns="http://www.w3.org/2000/svg">
<path d="M160 277C224.617 277 277 224.617 277 160C277 95.3827 224.617 43 160 43C95.3827 43 43 95.3827 43 160C43 224.617 95.3827 277 160 277Z" fill="#80074D"/>
<path d="M59.3354 66C59.7423 66 60.7305 66.0965 62.3193 66.2701C62.5131 66.2701 62.5906 66.1737 62.5906 66C68.7909 66 77.0064 68.7014 87.2757 74.1043C91.0346 76.2268 97.9906 80.8193 108.144 87.8816C114.053 91.4513 120.37 94.0562 127.132 95.7157C130.116 96.4489 133.914 96.8156 138.525 96.8156C141.296 96.8156 145.714 95.542 151.798 93.0143C152.941 93.0143 156.119 90.4093 161.312 85.1801H161.583C161.951 85.2573 162.145 85.431 162.145 85.7397C161.525 88.8656 158.618 92.4547 153.464 96.5454C150.694 98.8995 146.993 100.791 142.342 102.218L130.116 106.232C129.38 106.849 124.943 109.03 116.844 112.735C114.15 114.568 110.992 116.362 107.388 118.138C104.772 120.048 101.323 122.132 97.0412 124.37C92.2747 127.303 86.8688 131.085 80.7653 135.716C78.7308 136.932 75.8632 139.267 72.1236 142.721C68.694 145.036 63.1718 149.725 55.5764 156.768C55.247 156.807 52.0693 160.125 46.0628 166.744H46.8959C56.4871 162.441 63.7144 160.299 68.5778 160.299C68.5778 160.106 68.6746 160.029 68.849 160.029L69.4109 160.299C70.4766 159.74 72.453 159.469 75.34 159.469C84.9312 159.469 95.1424 162.074 105.993 167.303C113.55 171.414 121.068 176.913 128.508 183.782C129.942 185.403 133.662 188.722 139.63 193.758C149.008 202.576 157.126 208.963 164.024 212.938C168.926 215.987 172.724 218.071 175.417 219.171C181.579 222.779 185.551 224.574 187.314 224.574C188.496 225.596 191.209 226.6 195.452 227.545C200.626 229.166 207.214 230.324 215.255 231.019C217.134 231.192 218.219 231.289 218.529 231.289C220.118 231.096 221.455 231.019 222.559 231.019C222.714 231.019 223.257 231.115 224.226 231.289L226.105 230.787C226.435 230.941 226.803 230.999 227.21 230.999C227.287 230.999 227.636 230.922 228.256 230.787V230.999C236.045 230.112 241.374 229.147 244.241 228.086C257.998 223.532 268.132 219.19 274.623 215.08C274.991 215.08 275.805 214.733 277.064 214.038C277.994 214.038 279.971 217.261 283.032 223.744C285.687 230.247 287.682 234.665 289 236.962V238.621C288.186 240.088 282.586 242.886 272.182 246.996C255.499 251.665 242.846 254 234.224 254C230.058 253.807 227.965 253.633 227.965 253.44L227.462 253.711L226.086 253.44C225.892 253.44 225.815 253.537 225.815 253.711C215.08 252.862 206.845 251.434 201.129 249.408C193.379 247.053 187.334 244.622 182.974 242.075C177.743 240.126 168.52 233.836 155.305 223.184C150.364 219.248 142.769 211.53 132.499 199.991C120.622 187.468 111.67 178.804 105.664 174.038C94.7742 166.84 84.563 163.232 75.0106 163.232C66.6402 163.232 56.2546 166.107 43.8539 171.877C40.0174 174.597 37.3048 176.662 35.7159 178.109C33.5846 180.463 32.0539 181.64 31.1238 181.64H30.5619C30.1938 181.64 30 181.37 30 180.811C32.5383 176.218 40.7731 166.937 54.6851 152.986C55.4602 152.504 58.4441 149.899 63.6562 145.152C74.9137 135.755 85.2024 128.017 94.5417 121.958C111.36 112.04 120.486 107.081 121.939 107.081C121.939 106.714 122.308 106.521 123.044 106.521V105.75C119.944 105.75 113.627 104.109 104.055 100.848C95.6849 97.2787 87.6438 92.4354 79.9321 86.2993C75.5338 82.8839 71.0191 80.086 66.3689 77.9249C66.0395 77.9249 65.3032 77.5582 64.16 76.825C61.3892 75.5708 57.7853 74.9533 53.3094 74.9533L52.8056 75.2234C52.6119 75.2234 52.5344 75.127 52.5344 74.9533C44.8614 74.9533 39.3393 78.2722 35.9872 84.9293L35.154 87.9009V91.9723C35.154 96.3139 37.9636 99.4398 43.5633 101.389C47.5547 102.045 49.5311 102.701 49.5311 103.318C49.5311 104.013 47.9035 104.457 44.6677 104.65H43.8345C40.1918 104.65 36.4716 102.315 32.7127 97.6453C31.647 93.0143 31.0076 90.6602 30.8332 90.583C31.1626 85.5467 32.6933 80.9543 35.4253 76.8057C40.8506 71.2292 45.4621 68.1804 49.2598 67.6594C49.2598 67.0999 52.5925 66.5596 59.2772 66H59.3354ZM62.3193 72.5027V72.7729C62.9006 72.7729 64.0825 73.2167 65.8651 74.1043L66.1364 73.5447C66.1364 73.1395 64.9544 72.7922 62.5906 72.5027H62.3193ZM84.563 76.8057V77.0758C84.8537 77.0758 85.2218 77.2688 85.6675 77.6354H85.9387V77.0758L84.8343 76.8057H84.563ZM86.7138 78.1757V78.4459C87.0432 78.4459 89.5814 79.8738 94.2898 82.7488C93.7667 81.7262 91.519 80.2018 87.5469 78.1757H86.7138ZM109.248 98.1277V98.9574C109.248 99.2854 111.147 99.9222 114.945 100.829C115.72 100.829 117.967 101.196 121.688 101.929C121.804 101.929 122.172 101.832 122.792 101.659C123.121 101.852 123.393 101.929 123.625 101.929C123.916 101.736 124.265 101.659 124.671 101.659V101.389C121.823 101.022 116.689 99.9415 109.229 98.1277H109.248ZM122.249 182.933V183.203C122.327 183.57 122.501 183.763 122.811 183.763V182.933H122.249ZM124.962 185.635V185.905C124.962 186.156 128.76 189.86 136.355 196.981C136.723 196.981 138.448 198.505 141.509 201.554C145.133 204.969 147.303 206.686 148.039 206.686H148.814C142.401 201.361 137.808 197.405 135.038 194.839C131.453 191.173 128.198 188.182 125.253 185.905V185.635H124.982H124.962ZM127.113 101.929H128.217C128.585 101.929 128.779 101.736 128.779 101.369H127.675C127.307 101.447 127.113 101.62 127.113 101.929ZM155.615 218.322V218.592C155.654 218.959 155.828 219.152 156.177 219.152H156.448C156.448 218.901 156.177 218.611 155.615 218.322ZM157.495 219.962V220.174C158.56 221.39 159.839 222.278 161.312 222.876C162.339 224.207 164.78 226.175 168.616 228.819L177.859 233.45V232.35C172.763 230.112 166.156 225.982 158.056 219.943H157.495V219.962ZM167.008 222.663C167.938 223.686 171.639 226.021 178.13 229.668C185.919 233.276 190.163 235.071 190.86 235.071H191.131V233.971C184.117 231.501 176.173 227.738 167.279 222.683H167.008V222.663ZM190.027 241.303V241.573C197.177 244.256 200.897 245.587 201.149 245.587L209.558 247.729V246.687C204.327 245.838 201.711 245.124 201.711 244.545C201.711 243.812 198.01 242.828 190.589 241.573C190.589 241.38 190.492 241.303 190.318 241.303H190.046H190.027ZM197.39 238.042V238.602C203.92 239.856 208.609 240.474 211.438 240.474H213.104V240.203C211.961 240.203 206.729 239.489 197.39 238.062V238.042ZM205.528 233.681L205.799 235.051V235.881C206.904 236.248 209.791 236.692 214.441 237.213C215.1 236.846 215.836 236.653 216.65 236.653H219.576C220.467 235.765 221.3 235.322 222.075 235.322V235.051C220.079 235.051 218.82 234.955 218.258 234.781L217.696 235.051L205.528 233.681ZM214.15 247.246V247.748C214.48 247.748 215.487 247.941 217.134 248.308C217.309 248.308 217.405 248.211 217.405 248.038L219.343 248.308H222.559C222.559 247.941 221.571 247.671 219.576 247.478C219.42 247.478 219.362 247.574 219.362 247.748C217.56 247.574 216.65 247.401 216.65 247.246C216.475 247.246 216.378 247.324 216.378 247.459L215.003 247.246H214.17H214.15ZM223.393 244.275V244.545H224.497V244.275H223.393ZM225.001 247.748V248.018H227.21L226.938 247.459C226.725 247.652 226.066 247.729 225.001 247.729V247.748ZM240.211 243.985H239.378V244.545C247.051 243.812 252.844 242.982 256.758 242.056V240.454C257.126 239.721 257.572 239.354 258.095 239.354V239.142H256.487C255.886 239.47 253.193 240.184 248.349 241.284C248.349 243.079 245.636 243.985 240.211 243.985ZM250.79 234.801H251.062C254.821 233.913 257.436 233.469 258.909 233.469L259.18 233.971C262.435 233.45 264.044 232.929 264.044 232.369C263.482 231.713 263.21 231.076 263.21 230.498C254.917 232.987 250.752 234.434 250.752 234.801H250.79ZM270.593 226.407H270.864L275.727 224.805V223.705H275.456C273.654 223.956 272.027 224.767 270.593 226.137V226.407Z" fill="white"/>
</svg>
